<?xml version="1.0" standalone="no"?><!DOCTYPE svg PUBLIC "-//W3C//DTD SVG 1.1//EN" "http://www.w3.org/Graphics/SVG/1.1/DTD/svg11.dtd"><svg t="1749545412669" class="icon" viewBox="0 0 1024 1024" version="1.1" xmlns="http://www.w3.org/2000/svg" p-id="26315" xmlns:xlink="http://www.w3.org/1999/xlink" width="200" height="200"><path d="M529.829 826.617c-47.316-28.163-70.937-63.437-72.211-107.836-1.066-37.146 13.425-74.048 29.667-111.731 11.078-25.699 8.417-50.229-7.907-72.908-12.663-17.593-29.142-27.531-29.307-27.63l8.156-13.765c0.775 0.458 19.151 11.457 33.795 31.577 19.863 27.291 23.305 58.088 9.956 89.06-33.412 77.521-53.762 146.038 36.034 199.486l-8.183 13.747z" fill="#CDE8E6" p-id="26316"></path><path d="M420.82 466.167v26.191c47.621 29.76 80.956 0 80.956 0l1.189-26.191H420.82z" fill="#B567A6" p-id="26317"></path><path d="M268.434 250.685a194.054 227.386 0 1 0 388.108 0 194.054 227.386 0 1 0-388.108 0Z" fill="#7CCBE0" p-id="26318"></path><path d="M343.229015 125.840757a39.287 55.956 54.507 1 0 45.620339 63.973887 39.287 55.956 54.507 1 0-45.620339-63.973887Z" fill="#C1E4E7" p-id="26319"></path><path d="M693.595 907.668c-0.674-0.653-16.577-16.402-23.412-51.78-8.851-45.819 0.879-101.896 28.918-166.67 11.072-25.688 8.412-50.219-7.912-72.897-12.663-17.593-29.142-27.531-29.307-27.63l8.156-13.765c0.774 0.458 19.151 11.456 33.795 31.576 19.863 27.291 23.306 58.087 9.956 89.061-63.119 145.812-9.605 200.086-9.058 200.617l-11.136 11.488z" fill="#F1F1A8" p-id="26320"></path><path d="M632.632 548.344v26.19c47.62 29.763 80.952 0 80.952 0l1.191-26.19h-82.143z" fill="#E6CD7B" p-id="26321"></path><path d="M480.249 332.864a194.051 227.387 0 1 0 388.102 0 194.051 227.387 0 1 0-388.102 0Z" fill="#E6B653" p-id="26322"></path><path d="M555.0225 208.021522a39.289 55.955 54.507 1 0 45.622661 63.977144 39.289 55.955 54.507 1 0-45.622661-63.977144Z" fill="#DDE392" p-id="26323"></path><path d="M405.981 985.075c-47.316-28.163-70.936-63.437-72.209-107.837-1.066-37.146 13.426-74.049 29.668-111.733 11.077-25.698 8.416-50.228-7.909-72.906-12.664-17.593-29.142-27.531-29.307-27.63l8.156-13.765c0.775 0.458 19.152 11.456 33.796 31.576 19.864 27.291 23.307 58.087 9.957 89.059-33.414 77.521-53.766 146.039 36.031 199.488l-8.183 13.748z" fill="#E5C2DB" p-id="26324"></path><path d="M296.975 624.624v26.191c47.621 29.761 80.955 0 80.955 0l1.191-26.191h-82.146z" fill="#B567A6" p-id="26325"></path><path d="M144.59 409.143a194.053 227.387 0 1 0 388.106 0 194.053 227.387 0 1 0-388.106 0Z" fill="#D387B7" p-id="26326"></path><path d="M219.385596 284.286572a39.287 55.955 54.507 1 0 45.620338 63.973886 39.287 55.955 54.507 1 0-45.620338-63.973886Z" fill="#E6BED9" p-id="26327"></path></svg>